# xmcd CD database file
#
# Track frame offsets:
#	150
#	6947
#	34315
#	90035
#	126427
#	176010
#	184247
#	227122
#	256292
#	296997
#	323563
#
# Disc length: 4668 seconds
#
# Revision: 0
# Processed by: cddbd v1.5.2PL0 Copyright (c) Steve Scherf et al.
# Submitted via: CDex 1.70beta2
#
DISCID=96123a0b
DTITLE=Michael Bloomfield and Al Kooper - Live Adventures Of Michael Bloomfield and Al Kooper (Disk2)
DYEAR=1968
DGENRE=Blues
TTITLE0=Opening Speech_Al Kooper
TTITLE1=Sonny Boy Williamson
TTITLE2=No More Lonely Nights
TTITLE3=Dear Mr. Fantasy
TTITLE4=Don't Throw Your Love On Me So Strong
TTITLE5=Finale-Refugee
TTITLE6=12:15 Slow Goonbash Blues
TTITLE7=Shuggie's Shuffle
TTITLE8=Bury My Body
TTITLE9=Lookin' For A Home
TTITLE10=I Love You More Then You'll Ever Know
EXTD=YEAR: 1968
EXTT0=
EXTT1=
EXTT2=
EXTT3=
EXTT4=
EXTT5=
EXTT6=
EXTT7=
EXTT8=
EXTT9=
EXTT10=
PLAYORDER=
